<svg width="500" height="500" viewBox="0 0 500 500" fill="none" xmlns="http://www.w3.org/2000/svg">
<rect width="500" height="500" rx="50" fill="#E2AD68"/>
<path d="M144.713 148.163C135.92 145.231 131.209 135.757 134.14 126.963C137.071 118.17 146.545 113.459 155.339 116.39L214.488 136.123C221.711 123.77 235.163 115.5 250.5 115.5C273.636 115.5 292.375 134.239 292.375 157.375C292.375 158.945 292.27 160.463 292.113 161.981L356.287 183.39C365.08 186.321 369.791 195.795 366.86 204.589C363.929 213.383 354.455 218.094 345.661 215.162L274.788 191.503C272.432 193.178 269.92 194.591 267.25 195.795V366.75C267.25 376.015 259.765 383.5 250.5 383.5H150C140.735 383.5 133.25 376.015 133.25 366.75C133.25 357.485 140.735 350 150 350H233.75V195.743C222.758 190.927 214.278 181.61 210.614 170.095L144.713 148.11V148.163ZM187.897 266.25L150 201.239L112.103 266.25H187.897ZM150 316.5C117.076 316.5 89.7 298.703 84.0469 275.201C82.686 269.443 84.5703 263.528 87.5539 258.398L137.385 172.973C140.002 168.472 144.818 165.75 150 165.75C155.182 165.75 159.998 168.524 162.615 172.973L212.446 258.398C215.43 263.528 217.314 269.443 215.953 275.201C210.3 298.703 182.924 316.5 150 316.5ZM350.372 268.239L312.475 333.25H388.321L350.372 268.239ZM416.325 342.201C410.672 365.703 383.296 383.5 350.372 383.5C317.448 383.5 290.072 365.703 284.419 342.201C283.058 336.443 284.942 330.528 287.926 325.398L337.757 239.973C340.374 235.472 345.19 232.75 350.372 232.75C355.554 232.75 360.37 235.524 362.987 239.973L412.818 325.398C415.802 330.528 417.686 336.443 416.325 342.201Z" fill="#002341"/>
</svg>
