<svg width="260" height="28" viewBox="0 0 260 28" fill="none" xmlns="http://www.w3.org/2000/svg">
<path d="M14.1348 20.1973C14.1348 19.7988 14.0762 19.4414 13.959 19.125C13.8418 18.7969 13.625 18.4922 13.3086 18.2109C12.9922 17.9297 12.5352 17.6484 11.9375 17.3672C11.3516 17.0742 10.5781 16.7695 9.61719 16.4531C8.49219 16.0781 7.4082 15.6562 6.36523 15.1875C5.32227 14.707 4.39062 14.1504 3.57031 13.5176C2.75 12.873 2.09961 12.123 1.61914 11.2676C1.13867 10.4004 0.898438 9.39258 0.898438 8.24414C0.898438 7.14258 1.14453 6.15234 1.63672 5.27344C2.12891 4.38281 2.81445 3.62695 3.69336 3.00586C4.58398 2.37305 5.62695 1.89258 6.82227 1.56445C8.01758 1.22461 9.32422 1.05469 10.7422 1.05469C12.6172 1.05469 14.2695 1.38281 15.6992 2.03906C17.1406 2.68359 18.2656 3.60352 19.0742 4.79883C19.8945 5.98242 20.3047 7.38281 20.3047 9H14.1699C14.1699 8.35547 14.0352 7.78711 13.7656 7.29492C13.5078 6.80273 13.1152 6.41602 12.5879 6.13477C12.0605 5.85352 11.3984 5.71289 10.6016 5.71289C9.82812 5.71289 9.17773 5.83008 8.65039 6.06445C8.12305 6.29883 7.72461 6.61523 7.45508 7.01367C7.18555 7.40039 7.05078 7.82812 7.05078 8.29688C7.05078 8.68359 7.15625 9.03516 7.36719 9.35156C7.58984 9.65625 7.90039 9.94336 8.29883 10.2129C8.70898 10.4824 9.20117 10.7402 9.77539 10.9863C10.3613 11.2324 11.0176 11.4727 11.7441 11.707C13.1035 12.1406 14.3105 12.627 15.3652 13.166C16.4316 13.6934 17.3281 14.2969 18.0547 14.9766C18.793 15.6445 19.3496 16.4062 19.7246 17.2617C20.1113 18.1172 20.3047 19.084 20.3047 20.1621C20.3047 21.3105 20.082 22.3301 19.6367 23.2207C19.1914 24.1113 18.5527 24.8672 17.7207 25.4883C16.8887 26.0977 15.8926 26.5605 14.7324 26.877C13.5723 27.1934 12.2773 27.3516 10.8477 27.3516C9.53516 27.3516 8.24023 27.1875 6.96289 26.8594C5.69727 26.5195 4.54883 26.0039 3.51758 25.3125C2.48633 24.6094 1.66016 23.7129 1.03906 22.623C0.429688 21.5215 0.125 20.2148 0.125 18.7031H6.3125C6.3125 19.4531 6.41211 20.0859 6.61133 20.6016C6.81055 21.1172 7.10352 21.5332 7.49023 21.8496C7.87695 22.1543 8.35156 22.377 8.91406 22.5176C9.47656 22.6465 10.1211 22.7109 10.8477 22.7109C11.6328 22.7109 12.2656 22.5996 12.7461 22.377C13.2266 22.1426 13.5781 21.8379 13.8008 21.4629C14.0234 21.0762 14.1348 20.6543 14.1348 20.1973ZM29.4629 7.98047V27H23.5215V7.98047H29.4629ZM23.1699 3.07617C23.1699 2.23242 23.4746 1.54102 24.084 1.00195C24.6934 0.462891 25.4844 0.193359 26.457 0.193359C27.4297 0.193359 28.2207 0.462891 28.8301 1.00195C29.4395 1.54102 29.7441 2.23242 29.7441 3.07617C29.7441 3.91992 29.4395 4.61133 28.8301 5.15039C28.2207 5.68945 27.4297 5.95898 26.457 5.95898C25.4844 5.95898 24.6934 5.68945 24.084 5.15039C23.4746 4.61133 23.1699 3.91992 23.1699 3.07617ZM43.0859 21.6562C43.0859 21.3281 42.9746 21.0469 42.752 20.8125C42.541 20.5664 42.166 20.3438 41.627 20.1445C41.0879 19.9336 40.332 19.7227 39.3594 19.5117C38.4336 19.3125 37.5605 19.0488 36.7402 18.7207C35.9316 18.3926 35.2227 17.9941 34.6133 17.5254C34.0039 17.0566 33.5234 16.5 33.1719 15.8555C32.832 15.2109 32.6621 14.4727 32.6621 13.6406C32.6621 12.832 32.832 12.0703 33.1719 11.3555C33.5234 10.6289 34.0332 9.99023 34.7012 9.43945C35.3809 8.87695 36.207 8.4375 37.1797 8.12109C38.1523 7.79297 39.2598 7.62891 40.502 7.62891C42.2129 7.62891 43.6895 7.89258 44.9316 8.41992C46.1738 8.93555 47.1289 9.66211 47.7969 10.5996C48.4766 11.5254 48.8164 12.5977 48.8164 13.8164H42.8926C42.8926 13.3359 42.8105 12.9258 42.6465 12.5859C42.4941 12.2461 42.2422 11.9883 41.8906 11.8125C41.5391 11.625 41.0703 11.5312 40.4844 11.5312C40.0742 11.5312 39.6992 11.6074 39.3594 11.7598C39.0312 11.9121 38.7676 12.123 38.5684 12.3926C38.3691 12.6621 38.2695 12.9785 38.2695 13.3418C38.2695 13.5996 38.3281 13.834 38.4453 14.0449C38.5742 14.2441 38.7676 14.4316 39.0254 14.6074C39.2832 14.7715 39.6113 14.9238 40.0098 15.0645C40.4082 15.1934 40.8887 15.3105 41.4512 15.416C42.7285 15.6504 43.9238 15.9844 45.0371 16.418C46.1504 16.8516 47.0527 17.4668 47.7441 18.2637C48.4473 19.0605 48.7988 20.1328 48.7988 21.4805C48.7988 22.3242 48.6055 23.1035 48.2188 23.8184C47.832 24.5215 47.2754 25.1426 46.5488 25.6816C45.8223 26.209 44.9492 26.6191 43.9297 26.9121C42.9102 27.2051 41.7617 27.3516 40.4844 27.3516C38.668 27.3516 37.1328 27.0293 35.8789 26.3848C34.625 25.7285 33.6758 24.9082 33.0312 23.9238C32.3984 22.9277 32.082 21.9199 32.082 20.9004H37.6016C37.625 21.4863 37.7656 21.9668 38.0234 22.3418C38.293 22.7168 38.6504 22.9922 39.0957 23.168C39.541 23.3438 40.0566 23.4316 40.6426 23.4316C41.1816 23.4316 41.627 23.3555 41.9785 23.2031C42.3418 23.0508 42.6172 22.8457 42.8047 22.5879C42.9922 22.3184 43.0859 22.0078 43.0859 21.6562ZM61.5957 7.98047V12.0938H50.1348V7.98047H61.5957ZM52.543 3.25195H58.4668V20.7949C58.4668 21.2988 58.5254 21.6914 58.6426 21.9727C58.7598 22.2422 58.959 22.4355 59.2402 22.5527C59.5332 22.6582 59.9199 22.7109 60.4004 22.7109C60.7402 22.7109 61.0215 22.7051 61.2441 22.6934C61.4668 22.6699 61.6777 22.6406 61.877 22.6055V26.8418C61.373 27.0059 60.8457 27.1289 60.2949 27.2109C59.7441 27.3047 59.1582 27.3516 58.5371 27.3516C57.2715 27.3516 56.1875 27.1523 55.2852 26.7539C54.3945 26.3555 53.7148 25.7285 53.2461 24.873C52.7773 24.0176 52.543 22.9043 52.543 21.5332V3.25195ZM73.1621 27.3516C71.6152 27.3516 70.2324 27.1113 69.0137 26.6309C67.7949 26.1387 66.7637 25.4648 65.9199 24.6094C65.0879 23.7539 64.4492 22.7695 64.0039 21.6562C63.5703 20.543 63.3535 19.3652 63.3535 18.123V17.4551C63.3535 16.0605 63.5469 14.7715 63.9336 13.5879C64.3203 12.3926 64.8945 11.3496 65.6562 10.459C66.418 9.56836 67.373 8.87695 68.5215 8.38477C69.6699 7.88086 71.0059 7.62891 72.5293 7.62891C73.877 7.62891 75.084 7.8457 76.1504 8.2793C77.2168 8.71289 78.1191 9.33398 78.8574 10.1426C79.6074 10.9512 80.1758 11.9297 80.5625 13.0781C80.9609 14.2266 81.1602 15.5156 81.1602 16.9453V19.3535H65.6211V15.6445H75.377V15.1875C75.3887 14.5547 75.2773 14.0156 75.043 13.5703C74.8203 13.125 74.4922 12.7852 74.0586 12.5508C73.625 12.3164 73.0977 12.1992 72.4766 12.1992C71.832 12.1992 71.2988 12.3398 70.877 12.6211C70.4668 12.9023 70.1445 13.2891 69.9102 13.7812C69.6875 14.2617 69.5293 14.8184 69.4355 15.4512C69.3418 16.084 69.2949 16.752 69.2949 17.4551V18.123C69.2949 18.8262 69.3887 19.4648 69.5762 20.0391C69.7754 20.6133 70.0566 21.1055 70.4199 21.5156C70.7949 21.9141 71.2402 22.2246 71.7559 22.4473C72.2832 22.6699 72.8809 22.7812 73.5488 22.7812C74.3574 22.7812 75.1543 22.6289 75.9395 22.3242C76.7246 22.0195 77.3984 21.5156 77.9609 20.8125L80.6504 24.0117C80.2637 24.5625 79.7129 25.0957 78.998 25.6113C78.2949 26.127 77.4512 26.5488 76.4668 26.877C75.4824 27.1934 74.3809 27.3516 73.1621 27.3516ZM89.5449 12.0059V27H83.6211V7.98047H89.1758L89.5449 12.0059ZM88.8242 16.8398L87.4707 16.875C87.4707 15.5391 87.6289 14.3086 87.9453 13.1836C88.2617 12.0586 88.7305 11.0801 89.3516 10.248C89.9727 9.41602 90.7344 8.77148 91.6367 8.31445C92.5508 7.85742 93.6055 7.62891 94.8008 7.62891C95.6328 7.62891 96.3887 7.75781 97.0684 8.01562C97.748 8.26172 98.334 8.6543 98.8262 9.19336C99.3184 9.7207 99.6934 10.4121 99.9512 11.2676C100.221 12.1113 100.355 13.125 100.355 14.3086V27H94.4316V15.0645C94.4316 14.2559 94.3379 13.6465 94.1504 13.2363C93.9746 12.8262 93.7168 12.5508 93.377 12.4102C93.0371 12.2695 92.6211 12.1992 92.1289 12.1992C91.6133 12.1992 91.1504 12.3164 90.7402 12.5508C90.3301 12.7852 89.9785 13.1133 89.6855 13.5352C89.4043 13.9453 89.1875 14.4316 89.0352 14.9941C88.8945 15.5566 88.8242 16.1719 88.8242 16.8398ZM99.6875 16.8398L98.0352 16.875C98.0352 15.5391 98.1816 14.3086 98.4746 13.1836C98.7793 12.0586 99.2305 11.0801 99.8281 10.248C100.438 9.41602 101.193 8.77148 102.096 8.31445C102.998 7.85742 104.047 7.62891 105.242 7.62891C106.109 7.62891 106.906 7.75781 107.633 8.01562C108.359 8.27344 108.986 8.68945 109.514 9.26367C110.041 9.83789 110.451 10.5996 110.744 11.5488C111.037 12.4863 111.184 13.6465 111.184 15.0293V27H105.242V15.0293C105.242 14.2441 105.148 13.6523 104.961 13.2539C104.785 12.8438 104.527 12.5684 104.188 12.4277C103.848 12.2754 103.443 12.1992 102.975 12.1992C102.412 12.1992 101.926 12.3164 101.516 12.5508C101.105 12.7852 100.76 13.1133 100.479 13.5352C100.209 13.9453 100.01 14.4316 99.8809 14.9941C99.752 15.5566 99.6875 16.1719 99.6875 16.8398ZM124.455 22.2188V14.3789C124.455 13.8398 124.379 13.377 124.227 12.9902C124.074 12.6035 123.834 12.3047 123.506 12.0938C123.178 11.8711 122.738 11.7598 122.188 11.7598C121.742 11.7598 121.361 11.8359 121.045 11.9883C120.729 12.1406 120.488 12.3691 120.324 12.6738C120.16 12.9785 120.078 13.3652 120.078 13.834H114.154C114.154 12.9551 114.348 12.1406 114.734 11.3906C115.133 10.6289 115.695 9.9668 116.422 9.4043C117.16 8.8418 118.039 8.4082 119.059 8.10352C120.09 7.78711 121.238 7.62891 122.504 7.62891C124.016 7.62891 125.363 7.88086 126.547 8.38477C127.742 8.88867 128.686 9.64453 129.377 10.6523C130.068 11.6484 130.414 12.9023 130.414 14.4141V22.2012C130.414 23.4434 130.484 24.3867 130.625 25.0312C130.766 25.6641 130.965 26.2207 131.223 26.7012V27H125.281C125 26.4141 124.789 25.6992 124.648 24.8555C124.52 24 124.455 23.1211 124.455 22.2188ZM125.176 15.3809L125.211 18.5449H122.592C122.041 18.5449 121.572 18.6211 121.186 18.7734C120.811 18.9258 120.506 19.1367 120.271 19.4062C120.049 19.6641 119.885 19.957 119.779 20.2852C119.686 20.6133 119.639 20.959 119.639 21.3223C119.639 21.6738 119.721 21.9902 119.885 22.2715C120.061 22.541 120.295 22.752 120.588 22.9043C120.881 23.0566 121.209 23.1328 121.572 23.1328C122.229 23.1328 122.785 23.0098 123.242 22.7637C123.711 22.5059 124.068 22.1953 124.314 21.832C124.561 21.4688 124.684 21.1289 124.684 20.8125L125.984 23.2383C125.75 23.707 125.48 24.1816 125.176 24.6621C124.883 25.1426 124.514 25.5879 124.068 25.998C123.635 26.3965 123.102 26.7246 122.469 26.9824C121.836 27.2285 121.068 27.3516 120.166 27.3516C118.994 27.3516 117.916 27.1113 116.932 26.6309C115.959 26.1504 115.18 25.4824 114.594 24.627C114.008 23.7598 113.715 22.7637 113.715 21.6387C113.715 20.6543 113.891 19.7754 114.242 19.002C114.605 18.2285 115.15 17.5723 115.877 17.0332C116.604 16.4941 117.529 16.084 118.654 15.8027C119.779 15.5215 121.104 15.3809 122.627 15.3809H125.176Z" fill="#002341"/>
<path d="M145.742 19.5293V1.40625H149.117V19.5293C149.117 21.2168 148.771 22.6406 148.08 23.8008C147.389 24.9609 146.434 25.8457 145.215 26.4551C144.008 27.0527 142.619 27.3516 141.049 27.3516C139.479 27.3516 138.084 27.082 136.865 26.543C135.646 26.0039 134.691 25.1836 134 24.082C133.309 22.9805 132.963 21.5918 132.963 19.916H136.355C136.355 20.9941 136.555 21.8789 136.953 22.5703C137.352 23.2617 137.902 23.7715 138.605 24.0996C139.32 24.4277 140.135 24.5918 141.049 24.5918C141.939 24.5918 142.736 24.4043 143.439 24.0293C144.154 23.6426 144.717 23.0742 145.127 22.3242C145.537 21.5625 145.742 20.6309 145.742 19.5293ZM166.01 22.6055V7.98047H169.279V27H166.168L166.01 22.6055ZM166.625 18.5977L167.979 18.5625C167.979 19.8281 167.844 21 167.574 22.0781C167.316 23.1445 166.895 24.0703 166.309 24.8555C165.723 25.6406 164.955 26.2559 164.006 26.7012C163.057 27.1348 161.902 27.3516 160.543 27.3516C159.617 27.3516 158.768 27.2168 157.994 26.9473C157.232 26.6777 156.576 26.2617 156.025 25.6992C155.475 25.1367 155.047 24.4043 154.742 23.502C154.449 22.5996 154.303 21.5156 154.303 20.25V7.98047H157.555V20.2852C157.555 21.1406 157.648 21.8496 157.836 22.4121C158.035 22.9629 158.299 23.4023 158.627 23.7305C158.967 24.0469 159.342 24.2695 159.752 24.3984C160.174 24.5273 160.607 24.5918 161.053 24.5918C162.436 24.5918 163.531 24.3281 164.34 23.8008C165.148 23.2617 165.729 22.541 166.08 21.6387C166.443 20.7246 166.625 19.7109 166.625 18.5977ZM177.488 10.9688V27H174.236V7.98047H177.4L177.488 10.9688ZM183.43 7.875L183.412 10.8984C183.143 10.8398 182.885 10.8047 182.639 10.793C182.404 10.7695 182.135 10.7578 181.83 10.7578C181.08 10.7578 180.418 10.875 179.844 11.1094C179.27 11.3438 178.783 11.6719 178.385 12.0938C177.986 12.5156 177.67 13.0195 177.436 13.6055C177.213 14.1797 177.066 14.8125 176.996 15.5039L176.082 16.0312C176.082 14.8828 176.193 13.8047 176.416 12.7969C176.65 11.7891 177.008 10.8984 177.488 10.125C177.969 9.33984 178.578 8.73047 179.316 8.29688C180.066 7.85156 180.957 7.62891 181.988 7.62891C182.223 7.62891 182.492 7.6582 182.797 7.7168C183.102 7.76367 183.312 7.81641 183.43 7.875ZM189.951 7.98047V27H186.699V7.98047H189.951ZM186.594 5.20312L190.004 0.0351562H193.924L189.213 5.20312H186.594ZM207.354 23.3086V0H210.623V27H207.635L207.354 23.3086ZM194.557 17.7012V17.332C194.557 15.8789 194.732 14.5605 195.084 13.377C195.447 12.1816 195.957 11.1562 196.613 10.3008C197.281 9.44531 198.072 8.78906 198.986 8.33203C199.912 7.86328 200.943 7.62891 202.08 7.62891C203.275 7.62891 204.318 7.83984 205.209 8.26172C206.111 8.67187 206.873 9.27539 207.494 10.0723C208.127 10.8574 208.625 11.8066 208.988 12.9199C209.352 14.0332 209.604 15.293 209.744 16.6992V18.3164C209.615 19.7109 209.363 20.9648 208.988 22.0781C208.625 23.1914 208.127 24.1406 207.494 24.9258C206.873 25.7109 206.111 26.3145 205.209 26.7363C204.307 27.1465 203.252 27.3516 202.045 27.3516C200.932 27.3516 199.912 27.1113 198.986 26.6309C198.072 26.1504 197.281 25.4766 196.613 24.6094C195.957 23.7422 195.447 22.7227 195.084 21.5508C194.732 20.3672 194.557 19.084 194.557 17.7012ZM197.826 17.332V17.7012C197.826 18.6504 197.92 19.541 198.107 20.373C198.307 21.2051 198.611 21.9375 199.021 22.5703C199.432 23.2031 199.953 23.7012 200.586 24.0645C201.219 24.416 201.975 24.5918 202.854 24.5918C203.932 24.5918 204.816 24.3633 205.508 23.9062C206.211 23.4492 206.773 22.8457 207.195 22.0957C207.617 21.3457 207.945 20.5312 208.18 19.6523V15.416C208.039 14.7715 207.834 14.1504 207.564 13.5527C207.307 12.9434 206.967 12.4043 206.545 11.9355C206.135 11.4551 205.625 11.0742 205.016 10.793C204.418 10.5117 203.709 10.3711 202.889 10.3711C201.998 10.3711 201.23 10.5586 200.586 10.9336C199.953 11.2969 199.432 11.8008 199.021 12.4453C198.611 13.0781 198.307 13.8164 198.107 14.6602C197.92 15.4922 197.826 16.3828 197.826 17.332ZM219.219 7.98047V27H215.949V7.98047H219.219ZM215.703 2.93555C215.703 2.4082 215.861 1.96289 216.178 1.59961C216.506 1.23633 216.986 1.05469 217.619 1.05469C218.24 1.05469 218.715 1.23633 219.043 1.59961C219.383 1.96289 219.553 2.4082 219.553 2.93555C219.553 3.43945 219.383 3.87305 219.043 4.23633C218.715 4.58789 218.24 4.76367 217.619 4.76367C216.986 4.76367 216.506 4.58789 216.178 4.23633C215.861 3.87305 215.703 3.43945 215.703 2.93555ZM232.051 24.6797C232.824 24.6797 233.539 24.5215 234.195 24.2051C234.852 23.8887 235.391 23.4551 235.812 22.9043C236.234 22.3418 236.475 21.7031 236.533 20.9883H239.627C239.568 22.1133 239.188 23.1621 238.484 24.1348C237.793 25.0957 236.885 25.875 235.76 26.4727C234.635 27.0586 233.398 27.3516 232.051 27.3516C230.621 27.3516 229.373 27.0996 228.307 26.5957C227.252 26.0918 226.373 25.4004 225.67 24.5215C224.979 23.6426 224.457 22.6348 224.105 21.498C223.766 20.3496 223.596 19.1367 223.596 17.8594V17.1211C223.596 15.8438 223.766 14.6367 224.105 13.5C224.457 12.3516 224.979 11.3379 225.67 10.459C226.373 9.58008 227.252 8.88867 228.307 8.38477C229.373 7.88086 230.621 7.62891 232.051 7.62891C233.539 7.62891 234.84 7.93359 235.953 8.54297C237.066 9.14062 237.939 9.96094 238.572 11.0039C239.217 12.0352 239.568 13.207 239.627 14.5195H236.533C236.475 13.7344 236.252 13.0254 235.865 12.3926C235.49 11.7598 234.975 11.2559 234.318 10.8809C233.674 10.4941 232.918 10.3008 232.051 10.3008C231.055 10.3008 230.217 10.5 229.537 10.8984C228.869 11.2852 228.336 11.8125 227.938 12.4805C227.551 13.1367 227.27 13.8691 227.094 14.6777C226.93 15.4746 226.848 16.2891 226.848 17.1211V17.8594C226.848 18.6914 226.93 19.5117 227.094 20.3203C227.258 21.1289 227.533 21.8613 227.92 22.5176C228.318 23.1738 228.852 23.7012 229.52 24.0996C230.199 24.4863 231.043 24.6797 232.051 24.6797ZM242.422 17.7012V17.2969C242.422 15.9258 242.621 14.6543 243.02 13.4824C243.418 12.2988 243.992 11.2734 244.742 10.4062C245.492 9.52734 246.4 8.84766 247.467 8.36719C248.533 7.875 249.729 7.62891 251.053 7.62891C252.389 7.62891 253.59 7.875 254.656 8.36719C255.734 8.84766 256.648 9.52734 257.398 10.4062C258.16 11.2734 258.74 12.2988 259.139 13.4824C259.537 14.6543 259.736 15.9258 259.736 17.2969V17.7012C259.736 19.0723 259.537 20.3438 259.139 21.5156C258.74 22.6875 258.16 23.7129 257.398 24.5918C256.648 25.459 255.74 26.1387 254.674 26.6309C253.619 27.1113 252.424 27.3516 251.088 27.3516C249.752 27.3516 248.551 27.1113 247.484 26.6309C246.418 26.1387 245.504 25.459 244.742 24.5918C243.992 23.7129 243.418 22.6875 243.02 21.5156C242.621 20.3438 242.422 19.0723 242.422 17.7012ZM245.674 17.2969V17.7012C245.674 18.6504 245.785 19.5469 246.008 20.3906C246.23 21.2227 246.564 21.9609 247.01 22.6055C247.467 23.25 248.035 23.7598 248.715 24.1348C249.395 24.498 250.186 24.6797 251.088 24.6797C251.979 24.6797 252.758 24.498 253.426 24.1348C254.105 23.7598 254.668 23.25 255.113 22.6055C255.559 21.9609 255.893 21.2227 256.115 20.3906C256.35 19.5469 256.467 18.6504 256.467 17.7012V17.2969C256.467 16.3594 256.35 15.4746 256.115 14.6426C255.893 13.7988 255.553 13.0547 255.096 12.4102C254.65 11.7539 254.088 11.2383 253.408 10.8633C252.74 10.4883 251.955 10.3008 251.053 10.3008C250.162 10.3008 249.377 10.4883 248.697 10.8633C248.029 11.2383 247.467 11.7539 247.01 12.4102C246.564 13.0547 246.23 13.7988 246.008 14.6426C245.785 15.4746 245.674 16.3594 245.674 17.2969Z" fill="#E2AD68"/>
</svg>
